<svg xmlns="http://www.w3.org/2000/svg" viewBox="0 0 1100 300" width="1100" height="300" role="img" aria-label="Peak Fettle scatter trendline lockup"><g transform="translate(8,38) scale(0.46)"><line x1="120" y1="112" x2="120" y2="410" stroke="#13415C" stroke-width="9" stroke-linecap="round"/><line x1="120" y1="410" x2="446" y2="410" stroke="#13415C" stroke-width="9" stroke-linecap="round"/><line x1="128" y1="401.1" x2="440" y2="214.0" stroke="#0F9D8E" stroke-width="10" stroke-linecap="round"/><circle cx="140" cy="374" r="12" fill="#ffffff"/><circle cx="140" cy="374" r="12" fill="none" stroke="#13415C" stroke-width="6"/><circle cx="182" cy="352" r="12" fill="#ffffff"/><circle cx="182" cy="352" r="12" fill="none" stroke="#13415C" stroke-width="6"/><circle cx="224" cy="366" r="12" fill="#ffffff"/><circle cx="224" cy="366" r="12" fill="none" stroke="#13415C" stroke-width="6"/><circle cx="266" cy="320" r="12" fill="#ffffff"/><circle cx="266" cy="320" r="12" fill="none" stroke="#13415C" stroke-width="6"/><circle cx="308" cy="332" r="12" fill="#ffffff"/><circle cx="308" cy="332" r="12" fill="none" stroke="#13415C" stroke-width="6"/><circle cx="350" cy="268" r="12" fill="#ffffff"/><circle cx="350" cy="268" r="12" fill="none" stroke="#13415C" stroke-width="6"/><circle cx="392" cy="256" r="12" fill="#ffffff"/><circle cx="392" cy="256" r="12" fill="none" stroke="#13415C" stroke-width="6"/><circle cx="424" cy="184" r="18" fill="#0F9D8E"/><circle cx="424" cy="184" r="7" fill="#ffffff"/></g><text x="300" y="182" font-family="'Helvetica Neue',Arial,'DejaVu Sans',sans-serif" font-size="80" font-weight="300" font-style="normal" fill="#13415C" text-anchor="start" letter-spacing="10">PEAK FETTLE</text></svg>